<svg xmlns="http://www.w3.org/2000/svg" viewBox="0 0 424.27 683.55"><defs><style>.cls-1{fill:#efcab1;}.cls-1,.cls-10,.cls-11,.cls-18,.cls-2,.cls-3,.cls-5,.cls-6,.cls-7,.cls-9{stroke:#332715;}.cls-1,.cls-10,.cls-11,.cls-12,.cls-13,.cls-14,.cls-15,.cls-2,.cls-3,.cls-5,.cls-6,.cls-7,.cls-9{stroke-linecap:round;stroke-linejoin:round;}.cls-1,.cls-10,.cls-11,.cls-15,.cls-18,.cls-2,.cls-3,.cls-6,.cls-7,.cls-9{stroke-width:2px;}.cls-2{fill:#c69c6d;}.cls-3{fill:#773c0c;}.cls-4{fill:#232811;}.cls-12,.cls-13,.cls-5,.cls-7{fill:none;}.cls-14,.cls-5{stroke-width:3px;}.cls-6{fill:#c97b35;}.cls-8{fill:#d8d7d6;}.cls-16,.cls-8{opacity:0.7;}.cls-9{fill:#7a4a1a;}.cls-10{fill:#e0c582;}.cls-11{fill:#ffefcc;}.cls-12,.cls-13,.cls-14,.cls-15{stroke:#754a11;}.cls-12,.cls-13{stroke-width:4px;}.cls-13{stroke-dasharray:0.98 6.83;}.cls-14,.cls-15{fill:#ff931e;}.cls-16{fill:#f4d3b0;}.cls-17{fill:#332715;opacity:0.3;}.cls-18{fill:#171912;stroke-miterlimit:10;}</style></defs><title>alquimista-post</title><g id="Layer_2" data-name="Layer 2"><g id="ALQUIMISTAS"><path id="braco2" class="cls-1" d="M19.19,394.94c4.44-7.53,4.71-12.53,4.71-12.53s-1.54-4.64-10.43-2.41C6.16,381.83,8.7,391.41,5.13,394c-1.6,1.14-3.3.29-3.6-1.65-1-6.62-1.32-12.88,6.15-21.74,9.25-11,15-14,15-14l42.93-38.67,67.15-56.58c7-6,12.25-4.16,14.73-1.48l37.65,42.4L99.93,350.89,43,381.45,25.61,396.82C23.48,399,17.65,397.55,19.19,394.94Z"/><path id="braço1" class="cls-1" d="M405.12,394.12c-4.48-7.51-4.77-12.51-4.77-12.51s1.52-4.64,10.43-2.45c7.31,1.8,4.81,11.39,8.39,13.91,1.61,1.14,3.3.28,3.59-1.66,1-6.63,1.27-12.89-6.24-21.71-9.3-10.93-15-13.92-15-13.92l-43.1-38.49L291,261c-7-6-12.27-4.11-14.74-1.42l-37.45,42.55,85.37,48.29,57.07,30.32L398.71,396C400.84,398.18,406.67,396.72,405.12,394.12Z"/><path id="perna1" class="cls-2" d="M180,682.41l-43.67.09s-38,2.08-5.68-22.39c-2.39-23.39-9.55-87.57-9.55-87.57l-5.23-110c2.06-2.62,13.74-24.28,44-24.11,29.61.18,46.89,21.18,49.05,23.9q-4.38,55-8.77,110l-7.66,98.74A12.53,12.53,0,0,1,180,682.41Z"/><path id="perna2" class="cls-2" d="M240.65,682.28l43.67-.09s38,1.92,5.6-22.41c2.29-23.41,9.17-87.62,9.17-87.62l4.77-110c-2.38-3-12.82-22.85-41.05-23.9-31.2-1.17-50,21.65-51.95,24.11q4.62,55,9.23,110L228.17,671A12.51,12.51,0,0,0,240.65,682.28Z"/><path id="cabelo_corstas" data-name="cabelo corstas" class="cls-3" d="M319.2,145.12c.12,60.75-109.88,60.23-109.88,60.23s-110,1-110.12-59.77S126.94,21.52,208.94,21.35C286.94,21.19,319.07,84.37,319.2,145.12Z"/><path class="cls-1" d="M299.87,467.15c-10.79,2.89-21.35-3.34-37.74-3.31-12,0-31,6.64-52.27,7.51-10.86.44-24.48-3.12-48.73-4.51-19.43-1.11-32,3.68-42.67-.07a4.14,4.14,0,0,1-2.7-4.39c4.13-35.29,2.25-70.57,6.38-105.85l11.68-93.86a5.83,5.83,0,0,1,5.8-5.17l37.8-6.08,3.07-13.95a147,147,0,0,0,28.86,2.68,145.56,145.56,0,0,0,29.89-3l3.18,14.15,42,5.91,12.72,99,5.65,96.15C303.42,457.53,304.94,465.79,299.87,467.15Z"/><path id="cabeça" class="cls-1" d="M322.08,180.73c0,10.69-8.62,24.66-19.31,24.68a26.84,26.84,0,0,1-9.14-1.46c-11.78,17.27-31.15,28.26-54.39,33.18a145.66,145.66,0,0,1-29.9,3,146.88,146.88,0,0,1-28.85-2.68c-23.6-4.69-43.33-15.57-55.37-32.87a27.5,27.5,0,0,1-8.25,1.2c-10.69,0-19.39-13.91-19.41-24.6,0-13.33,6.48-11.95,15.15-13.7-.15-2.07-.23-4.18-.23-6.35-.16-77,43.1-114.49,96.56-114.6s96.87,33.9,97,114.2c0,2.09-.06,4.15-.2,6.15C315,168.1,322.05,166.25,322.08,180.73Z"/><path class="cls-4" d="M168.77,177c0,10.1-6.12,14.09-13.7,14.1s-13.73-3.94-13.76-14,6.1-22.54,13.69-22.55S168.75,166.86,168.77,177Z"/><path class="cls-5" d="M140.77,180.15c0-9.36,5.65-19.17,12.83-25s14.48-4.42,20.91,1.86"/><path class="cls-6" d="M135.71,146.22c4.9-8,14.85-13.39,24-14.56s14.66,3.8,16.85,12.51Z"/><path class="cls-4" d="M232.79,176.84c0,10.11,6.17,14.07,13.75,14s13.72-4,13.7-14.11-6.19-22.51-13.77-22.5S232.77,166.73,232.79,176.84Z"/><path class="cls-5" d="M272.78,179.88c0-9.37-5.72-19.16-12.93-24.91s-14.5-4.36-20.9,1.95"/><path class="cls-6" d="M277.7,145.92c-4.94-8-14.9-13.33-24-14.46S239,135.32,236.85,144Z"/><path class="cls-7" d="M230.34,213.3c.2,5.31-6.94,6.86-9.21,7.54-3.79,1.13-6.31-2.08-14-2-7.5.08-11,2.78-14.28.74-2.26-1.42-6.63-3-6.51-6.18"/><path id="cabelo_frente" data-name="cabelo frente" class="cls-6" d="M319.13,124.84c.13,60.75-68.06-31.6-68.06-31.6C256.85,152,206.15,142.35,192.8,141a16.72,16.72,0,0,1-8.29-3.07c-9.18-6.8-18-24.15-4.41-40.49-28.77,34.63-72,58.9-79.58,52a5,5,0,0,1-1.32-3.85C99.07,84.83,126.94,21.52,208.94,21.35,286.94,21.19,319,64.09,319.13,124.84Z"/><ellipse class="cls-8" cx="159.13" cy="183.34" rx="4" ry="4.5"/><ellipse class="cls-8" cx="250.13" cy="183.34" rx="4" ry="4.5"/><path class="cls-9" d="M308.85,462.13c0,15.48-.16,48-3.8,73.71C302.19,556,299.63,572,299.63,572s-1.08,9.68-2.54,22.88c-2.17,19.65-5.18,47.11-6.74,62.16a1.43,1.43,0,0,1-1.43,1.29H228.69a1.43,1.43,0,0,1-1.44-1.33l-4.83-62.12-1.79-23c-1-13.16-2.1-24.78-3.15-36-1.73-18.48-3.46-35.77-5.19-56.88a1.44,1.44,0,0,0-2.88,0c-2.78,33.65-5.54,57.64-8.32,92.41L194.45,657a1.45,1.45,0,0,1-1.44,1.33H132.86a1.44,1.44,0,0,1-1.44-1.29c-2.57-24.91-9.33-85.46-9.33-85.46s-8.86-82.18-9.22-109.83c-.18-14.69.73-49.87,1.19-58.51a1.43,1.43,0,0,1,1.44-1.36H304.79a1.43,1.43,0,0,1,1.44,1.32C306.91,411.73,308.86,447.29,308.85,462.13Z"/><path class="cls-10" d="M310.87,468.15c-10.79,2.89-80.74,3.33-102,4.2-10.86.44-90.72-.83-101.4-4.58a4.14,4.14,0,0,1-2.7-4.39c4.13-35.29,7.37-65.54,15.37-106.54l12.69-93.17a5.83,5.83,0,0,1,5.8-5.17l37.8-6.08,3.07-13.95c9.11,1.81,28.64,1.37,29.64,15.37,0-14,19.69-13.71,29.11-15.71l3.18,14.15,40.1,5a5.83,5.83,0,0,1,5.08,5.19l12.53,95.38,14.66,95.48C314.42,458.53,315.94,466.79,310.87,468.15Z"/><g id="ALQUIMISTA"><g id="jalequinho"><polygon class="cls-11" points="11.86 351.84 55.86 398.84 164.86 300.84 133.81 257.34 11.86 351.84"/><polygon class="cls-11" points="96.86 447.84 165.86 454.84 176.86 249.84 130.86 256.84 96.86 447.84"/><polygon class="cls-11" points="148.86 253.84 176.86 240.84 173.86 313.84 136.86 300.84 148.86 253.84"/><polygon class="cls-11" points="405.86 351.84 361.86 398.84 252.86 300.84 283.91 257.34 405.86 351.84"/><polygon class="cls-11" points="320.86 447.84 251.86 454.84 240.86 249.84 286.86 256.84 320.86 447.84"/><polygon class="cls-11" points="268.86 253.84 240.86 240.84 243.86 313.84 280.86 300.84 268.86 253.84"/><path class="cls-12" d="M277.86,300.84v.5"/><path class="cls-13" d="M277.28,308.14c-4,25.68-27.51,53.7-47.42,53.7-20.76,0-52.73-18.71-55.77-44.09"/><path class="cls-12" d="M173.86,314.34v-.5"/></g><ellipse class="cls-14" cx="209.36" cy="267.34" rx="12.5" ry="16.5"/><ellipse class="cls-15" cx="303.61" cy="203.73" rx="4.25" ry="5.61"/><path class="cls-16" d="M216.9,262.15c1.2,3.34.7,6.84-1.1,7.82s-1.51-2.41-2.71-5.74c-2.37-6.61-2.25-6-1.62-6.34C213.27,256.91,215.71,258.82,216.9,262.15Z"/><path class="cls-17" d="M203.41,274.31c2.55,4.71,5.13,5.37,8.12,4.39s-.41-4.6-2-9.9-.84-10.3-3.83-9.32S198.65,265.51,203.41,274.31Z"/><ellipse class="cls-16" cx="212.63" cy="270.88" rx="1.49" ry="2.44"/><path class="cls-10" d="M285.82,55.24S151.5,108.81,130.57,112.45c-12.84,2.23-38,1.5-38,1.5S115.71,20.31,194.35,12.77C249.33,7.5,285.82,55.24,285.82,55.24Z"/><path class="cls-11" d="M286.52,40.91C292.15,73.84,218.7,59.6,156.31,80.4c-52.39,17.48-55.44,64.65-72,35.65-3.09-5.42-12.59-72.11,46.63-95.22C232.68-18.88,280.89,8,286.52,40.91Z"/><path class="cls-18" d="M193,659.29H132.86a6.38,6.38,0,0,0-2.22.82c-32.31,24.47,5.68,22.39,5.68,22.39l43.67-.09a12.53,12.53,0,0,0,12.44-11.3l.92-11.87A1,1,0,0,1,193,659.29Z"/><path class="cls-18" d="M228,659.29h60.15a6.54,6.54,0,0,1,2.22.82c32.31,24.47-5.68,22.39-5.68,22.39L241,682.41a12.53,12.53,0,0,1-12.44-11.3l-.92-11.87A1,1,0,0,0,228,659.29Z"/></g></g></g></svg>